<svg xmlns="http://www.w3.org/2000/svg" viewBox="0 0 361.18 201.52"><title>Asset 1</title><g id="Layer_2" data-name="Layer 2"><g id="Layer_1-2" data-name="Layer 1"><g id="Layer_2-2" data-name="Layer 2"><g id="Layer_1-2-2" data-name="Layer 1-2"><path d="M361.18,201.52H224.92v-27L289.23,106q13.23-14.48,19.59-25.26t6.35-20.48q0-13.24-6.69-20.82t-19.12-7.58Q276,31.82,268.27,41t-7.72,24.23H221a65.17,65.17,0,0,1,8.67-33.17A61,61,0,0,1,254.14,8.53Q270,0,290.05,0q30.7,0,47.71,14.75t17,41.64q0,14.74-7.65,30T320.9,122.06l-45.19,47.65h85.47Z" style="fill:#fff"/><path d="M31.93,0A32,32,0,0,0,0,31.93V169.59a32,32,0,0,0,31.93,31.93H291.07V171H48.32c-8,0-14.45-6.23-14.48-13.88V44.34c0-7.65,6.5-13.85,14.48-13.88H291.07V0Z" style="fill:#fff"/><path d="M127.4,63v75.56a4,4,0,0,0,4,4,4,4,0,0,0,2.3-.73l52.69-37.46a4,4,0,0,0,.91-5.56,3.93,3.93,0,0,0-.91-.91L133.69,59.74a4,4,0,0,0-5.55.92A3.91,3.91,0,0,0,127.4,63Z" style="fill:#fff"/></g></g></g></g></svg>